<svg xmlns="http://www.w3.org/2000/svg" viewBox="0 0 475.1 484.7"><defs><style>.cls-1{fill:#ee740e;}</style></defs><title>Recurso 1</title><g id="Capa_2" data-name="Capa 2"><g id="Capa_1-2" data-name="Capa 1"><path class="cls-1" d="M125.4,372.5v-224c0-14.5,8.1-24.2,22.4-26.5a20.5,20.5,0,0,1,18.3,6.3c3.9,3.9,7.1,8.5,10.6,12.9,64.4-33.2,122-26.6,166.4,34.3,29.9,40.9,26.5,97.8-4.4,137.7-19.3,24.9-44.7,40-75.7,45.5s-59.5-3.8-86.8-20.2c-.2,3.2-.5,5.4-.5,7.7V457.8c-.1,15.2-8.1,24.8-23.2,26.7-8.9,1.2-16.4-2.5-22.3-9a32.3,32.3,0,0,1-5.2-8.3c-9.6-21.6-26.1-37.4-43-53.1C58.8,392.4,37.6,369,22.9,340.5a201.2,201.2,0,0,1-21.5-73c-5.7-56.9,6-109.9,37.5-157.7C76.2,53.1,128.3,17.2,195,4.5,272.6-10.3,340.2,12,398,64.4c39.5,35.6,64,80.4,73,132.7,13.2,76.7-5.6,145.4-57.1,204.1-37.6,42.7-85.3,68.3-141.4,77.7a260.2,260.2,0,0,1-34.2,3c-14.5.4-26.9-10.8-29-25.1s6.9-29.1,21.4-32.6c6.6-1.5,13.7-1.2,20.5-1.5,77.4-3.7,148.4-59.2,167.2-140.6a182.2,182.2,0,1,0-356-77.7c-8.3,40.9-4.5,80.5,17.5,117.1,11.3,18.8,26.4,34.2,42.3,49A18.5,18.5,0,0,0,125.4,372.5ZM244.1,173c-34.2-1.1-67.5,29.2-68.1,67.3-.6,30.6,23,68.4,68.4,68.8,37.9.4,68.1-30.3,68-68.2A67.9,67.9,0,0,0,244.1,173Z"/></g></g></svg>